<svg width="25" height="24" viewBox="0 0 25 24" fill="none" xmlns="http://www.w3.org/2000/svg">
<path fill-rule="evenodd" clip-rule="evenodd" d="M16.0714 17.8571H8.92857C8.13929 17.8571 7.5 17.2178 7.5 16.4285V10.7142C7.5 9.92493 8.13929 9.28564 8.92857 9.28564H16.0714C16.8607 9.28564 17.5 9.92493 17.5 10.7142V16.4285C17.5 17.2178 16.8607 17.8571 16.0714 17.8571Z" stroke="#0D71F0" stroke-width="1.5" stroke-linecap="round" stroke-linejoin="round"/>
<path d="M12.5002 15.0641V13.2141" stroke="#0D71F0" stroke-width="1.5" stroke-linecap="round" stroke-linejoin="round"/>
<path d="M12.8789 12.2996C13.0881 12.5088 13.0881 12.848 12.8789 13.0572C12.6697 13.2664 12.3305 13.2664 12.1213 13.0572C11.9121 12.848 11.9121 12.5088 12.1213 12.2996C12.3305 12.0904 12.6697 12.0904 12.8789 12.2996" stroke="#0D71F0" stroke-width="1.5" stroke-linecap="round" stroke-linejoin="round"/>
<path d="M9.64307 9.28571V7.85714V7.85714C9.64307 6.27929 10.9224 5 12.5002 5V5C14.0781 5 15.3574 6.27929 15.3574 7.85714V7.85714V9.28571" stroke="#0D71F0" stroke-width="1.5" stroke-linecap="round" stroke-linejoin="round"/>
</svg>
